<svg width="64" height="64" viewBox="0 0 64 64" fill="none" xmlns="http://www.w3.org/2000/svg">
<circle cx="32" cy="32" r="32" fill="white"/>
<path d="M30.68 28.5433H26.6956C26.5819 27.8899 26.3724 27.3111 26.067 26.8068C25.7616 26.2955 25.3817 25.8622 24.9271 25.5071C24.4726 25.152 23.9541 24.8857 23.3717 24.7081C22.7964 24.5234 22.175 24.4311 21.5074 24.4311C20.3213 24.4311 19.2702 24.7294 18.354 25.326C17.4378 25.9155 16.7204 26.782 16.202 27.9254C15.6835 29.0618 15.4243 30.4503 15.4243 32.0909C15.4243 33.7599 15.6835 35.1662 16.202 36.3097C16.7275 37.446 17.4449 38.3054 18.354 38.8878C19.2702 39.4631 20.3177 39.7507 21.4967 39.7507C22.1501 39.7507 22.7609 39.6655 23.3291 39.495C23.9044 39.3175 24.4193 39.0582 24.8738 38.7173C25.3355 38.3764 25.7226 37.9574 26.0351 37.4602C26.3547 36.9631 26.5748 36.3949 26.6956 35.7557L30.68 35.777C30.5308 36.8139 30.2077 37.7869 29.7105 38.696C29.2204 39.6051 28.5777 40.4077 27.7822 41.1037C26.9868 41.7926 26.0564 42.3324 24.991 42.723C23.9257 43.1065 22.7432 43.2983 21.4434 43.2983C19.5258 43.2983 17.8142 42.8544 16.3085 41.9666C14.8028 41.0788 13.6167 39.7969 12.7503 38.1207C11.8838 36.4446 11.4506 34.4347 11.4506 32.0909C11.4506 29.7401 11.8873 27.7301 12.7609 26.0611C13.6345 24.3849 14.8241 23.103 16.3298 22.2152C17.8355 21.3274 19.54 20.8835 21.4434 20.8835C22.6579 20.8835 23.7872 21.054 24.8312 21.3949C25.8753 21.7358 26.8057 22.2365 27.6224 22.897C28.4392 23.5504 29.1104 24.353 29.6359 25.3047C30.1686 26.2493 30.5166 27.3288 30.68 28.5433Z" fill="#0F172A"/>
<path d="M52.68 28.5433H48.6956C48.5819 27.8899 48.3724 27.3111 48.067 26.8068C47.7616 26.2955 47.3817 25.8622 46.9271 25.5071C46.4726 25.152 45.9541 24.8857 45.3717 24.7081C44.7964 24.5234 44.175 24.4311 43.5074 24.4311C42.3213 24.4311 41.2702 24.7294 40.354 25.326C39.4378 25.9155 38.7204 26.782 38.202 27.9254C37.6835 29.0618 37.4243 30.4503 37.4243 32.0909C37.4243 33.7599 37.6835 35.1662 38.202 36.3097C38.7275 37.446 39.4449 38.3054 40.354 38.8878C41.2702 39.4631 42.3177 39.7507 43.4967 39.7507C44.1501 39.7507 44.7609 39.6655 45.3291 39.495C45.9044 39.3175 46.4193 39.0582 46.8738 38.7173C47.3355 38.3764 47.7226 37.9574 48.0351 37.4602C48.3547 36.9631 48.5748 36.3949 48.6956 35.7557L52.68 35.777C52.5308 36.8139 52.2077 37.7869 51.7105 38.696C51.2204 39.6051 50.5777 40.4077 49.7822 41.1037C48.9868 41.7926 48.0564 42.3324 46.991 42.723C45.9257 43.1065 44.7432 43.2983 43.4434 43.2983C41.5258 43.2983 39.8142 42.8544 38.3085 41.9666C36.8028 41.0788 35.6167 39.7969 34.7503 38.1207C33.8838 36.4446 33.4506 34.4347 33.4506 32.0909C33.4506 29.7401 33.8873 27.7301 34.7609 26.0611C35.6345 24.3849 36.8241 23.103 38.3298 22.2152C39.8355 21.3274 41.54 20.8835 43.4434 20.8835C44.6579 20.8835 45.7872 21.054 46.8312 21.3949C47.8753 21.7358 48.8057 22.2365 49.6224 22.897C50.4392 23.5504 51.1104 24.353 51.6359 25.3047C52.1686 26.2493 52.5166 27.3288 52.68 28.5433Z" fill="#0F172A"/>
</svg>
